# xmcd CD database file
#
# Track frame offsets:
#	150
#	12258
#	24087
#	38471
#	50912
#	59918
#	73194
#	86987
#	100720
#	113708
#	128873
#	142186
#	156347
#	167983
#
# Disc length: 2374 seconds
#
# Revision: 0
# Processed by: cddbd v1.5.1PL2 Copyright (c) Steve Scherf et al.
# Submitted via: CDex 1.70beta2
#
DISCID=c909440e
DTITLE=Tammy Wynette - The Great  Disk 3
DYEAR=1900
DGENRE=Country
TTITLE0=01-There Goes My Everything
TTITLE1=02-I Don't Wanna Play House
TTITLE2=03-No One Else In The World
TTITLE3=04-You'll Never Walk Alone
TTITLE4=05-I Stayed Long Enough
TTITLE5=06-Send Me No Roses
TTITLE6=07-Till I Can Make It On My Own
TTITLE7=08-Golden Ring
TTITLE8=09-If You Think I Love You
TTITLE9=10-You And Me
TTITLE10=11-One Of A Kind
TTITLE11=12-Starting Over
TTITLE12=13-True And Lasting Love
TTITLE13=14-I'm Not Mine To Give
EXTD=
EXTT0=
EXTT1=
EXTT2=
EXTT3=
EXTT4=
EXTT5=
EXTT6=
EXTT7=
EXTT8=
EXTT9=
EXTT10=
EXTT11=
EXTT12=
EXTT13=
PLAYORDER=
